<svg xmlns="http://www.w3.org/2000/svg" viewBox="0 0 100 100" preserveAspectRatio="xMidYMid" class="lds-stripe"><defs><pattern patternUnits="userSpaceOnUse" width="100" height="100" id="a"><g transform="translate(11.842)"><path fill="#af66fe" d="M-20-10h10v120h-10z" transform="rotate(20 50 50) scale(1.2)"/><path fill="#63e2ff" d="M-10-10H0v120h-10z" transform="rotate(20 50 50) scale(1.2)"/><path fill="#af66fe" d="M0-10h10v120H0z" transform="rotate(20 50 50) scale(1.2)"/><path fill="#63e2ff" d="M10-10h10v120H10z" transform="rotate(20 50 50) scale(1.2)"/><path fill="#af66fe" d="M20-10h10v120H20z" transform="rotate(20 50 50) scale(1.2)"/><path fill="#63e2ff" d="M30-10h10v120H30z" transform="rotate(20 50 50) scale(1.2)"/><path fill="#af66fe" d="M40-10h10v120H40z" transform="rotate(20 50 50) scale(1.2)"/><path fill="#63e2ff" d="M50-10h10v120H50z" transform="rotate(20 50 50) scale(1.2)"/><path fill="#af66fe" d="M60-10h10v120H60z" transform="rotate(20 50 50) scale(1.2)"/><path fill="#63e2ff" d="M70-10h10v120H70z" transform="rotate(20 50 50) scale(1.2)"/><path fill="#af66fe" d="M80-10h10v120H80z" transform="rotate(20 50 50) scale(1.2)"/><path fill="#63e2ff" d="M90-10h10v120H90z" transform="rotate(20 50 50) scale(1.2)"/><path fill="#af66fe" d="M100-10h10v120h-10zM110-10h10v120h-10z" transform="rotate(20 50 50) scale(1.2)"/><animateTransform attributeName="transform" type="translate" values="0 0;26 0" keyTimes="0;1" repeatCount="indefinite" dur="1.9s"/></g></pattern></defs><rect rx="10" ry="10" x="10" y="40" stroke="#04030f" stroke-width="4" width="80" height="20" fill="url(#a)"/></svg>